<svg width="50" height="50" viewBox="0 0 50 50" fill="none" xmlns="http://www.w3.org/2000/svg">
<path d="M12.5 47.5L25 37.5L37.5 47.5M14.5 37.5H35.5C39.7005 37.5 41.8005 37.5 43.405 36.6825C44.8162 35.9635 45.9635 34.8163 46.6825 33.405C47.5 31.8005 47.5 29.7005 47.5 25.5V14.5C47.5 10.2996 47.5 8.1994 46.6825 6.59508C45.9635 5.18385 44.8162 4.0365 43.405 3.31745C41.8005 2.5 39.7005 2.5 35.5 2.5H14.5C10.2996 2.5 8.1994 2.5 6.59508 3.31745C5.18385 4.0365 4.0365 5.18385 3.31745 6.59508C2.5 8.1994 2.5 10.2996 2.5 14.5V25.5C2.5 29.7005 2.5 31.8005 3.31745 33.405C4.0365 34.8163 5.18385 35.9635 6.59508 36.6825C8.1994 37.5 10.2996 37.5 14.5 37.5Z" stroke="#1BE4D8" stroke-width="5" stroke-linecap="round" stroke-linejoin="round"/>
</svg>
